<?xml version="1.0" encoding="UTF-8" standalone="no"?>
<!-- Created with Inkscape (http://www.inkscape.org/) -->

<svg
   width="100"
   height="100"
   viewBox="0 0 26.458333 26.458333"
   version="1.1"
   id="svg1"
   xml:space="preserve"
   inkscape:export-filename="no-background.png"
   inkscape:export-xdpi="245.75999"
   inkscape:export-ydpi="245.75999"
   inkscape:version="1.4.1-rc (06eac75fbf, 2025-03-29)"
   sodipodi:docname="no-background.svg"
   xmlns:inkscape="http://www.inkscape.org/namespaces/inkscape"
   xmlns:sodipodi="http://sodipodi.sourceforge.net/DTD/sodipodi-0.dtd"
   xmlns="http://www.w3.org/2000/svg"
   xmlns:svg="http://www.w3.org/2000/svg"><sodipodi:namedview
     id="namedview1"
     pagecolor="#ffffff"
     bordercolor="#000000"
     borderopacity="0.25"
     inkscape:showpageshadow="2"
     inkscape:pageopacity="0.0"
     inkscape:pagecheckerboard="true"
     inkscape:deskcolor="#d1d1d1"
     inkscape:document-units="mm"
     showguides="true"
     showgrid="true"
     inkscape:export-bgcolor="#ffffff00"
     inkscape:zoom="5.6568543"
     inkscape:cx="69.031299"
     inkscape:cy="52.767844"
     inkscape:window-width="1920"
     inkscape:window-height="1001"
     inkscape:window-x="0"
     inkscape:window-y="0"
     inkscape:window-maximized="1"
     inkscape:current-layer="layer1"><sodipodi:guide
       position="46.228434,-3.0716983"
       orientation="1,0"
       id="guide5"
       inkscape:locked="false" /><sodipodi:guide
       position="46.90813,3.7822079"
       orientation="0,-1"
       id="guide6"
       inkscape:locked="false" /><sodipodi:guide
       position="40.029856,5.1477478"
       orientation="0,-1"
       id="guide7"
       inkscape:locked="false" /><sodipodi:guide
       position="47.040546,-2.3420011"
       orientation="1,0"
       id="guide8"
       inkscape:locked="false" /><sodipodi:guide
       position="45.021212,-3.1695969"
       orientation="1,0"
       id="guide9"
       inkscape:locked="false" /><sodipodi:guide
       position="45.586881,10.704773"
       orientation="0.70710678,-0.70710678"
       id="guide10"
       inkscape:locked="false" /><sodipodi:guide
       position="43.127083,9.888802"
       orientation="0.70710678,-0.70710678"
       id="guide11"
       inkscape:locked="false" /><sodipodi:guide
       position="38.430729,18.934245"
       orientation="0.98186751,0.18956843"
       id="guide12"
       inkscape:locked="false" /><sodipodi:guide
       position="45.586881,10.704773"
       orientation="1,0"
       id="guide13"
       inkscape:locked="false" /><sodipodi:guide
       position="53.431354,21.687572"
       orientation="0.9802983,-0.19752278"
       id="guide17"
       inkscape:locked="false" /><inkscape:grid
       id="grid25"
       units="mm"
       originx="0"
       originy="0"
       spacingx="0.99999999"
       spacingy="0.99999999"
       empcolor="#0099e5"
       empopacity="0.30196078"
       color="#0099e5"
       opacity="0.14901961"
       empspacing="5"
       enabled="true"
       visible="true" /></sodipodi:namedview><defs
     id="defs1"><inkscape:path-effect
       effect="mirror_symmetry"
       start_point="45.586882,0.9425781"
       end_point="45.586882,10.247695"
       center_point="45.586882,5.5951366"
       id="path-effect20"
       is_visible="true"
       lpeversion="1.2"
       lpesatellites=""
       mode="free"
       discard_orig_path="false"
       fuse_paths="false"
       oposite_fuse="false"
       split_items="false"
       split_open="false"
       link_styles="false" /><inkscape:path-effect
       effect="mirror_symmetry"
       start_point="52.57,0.94257811"
       end_point="52.57,10.247695"
       center_point="52.57,5.5951366"
       id="path-effect19"
       is_visible="true"
       lpeversion="1.2"
       lpesatellites=""
       mode="X"
       discard_orig_path="false"
       fuse_paths="false"
       oposite_fuse="false"
       split_items="false"
       split_open="false"
       link_styles="false" /></defs><g
     inkscape:label="Layer 1"
     inkscape:groupmode="layer"
     id="layer1"
     style="display:inline"><path
       id="circle4"
       style="fill:#ffffff;fill-opacity:1;stroke:#1d2f4a;stroke-width:1.01256042;stroke-linejoin:miter;paint-order:stroke fill markers;stroke-opacity:1;stroke-dasharray:none"
       d="M 13.228941,8.6233802 A 11.424853,12.648044 0 0 0 4.4452981,13.218138 11.424853,12.648044 0 0 0 13.228941,17.812455 11.424853,12.648044 0 0 0 22.013024,13.218138 11.424853,12.648044 0 0 0 13.228941,8.6233802 Z" /><circle
       style="fill:#0c1624;fill-opacity:1;stroke:none;stroke-width:0.495349;stroke-linejoin:round;paint-order:markers stroke fill"
       id="circle2"
       cx="13.229021"
       cy="13.226068"
       r="3.5005252" /><circle
       style="fill:#1d2f4a;fill-opacity:1;stroke:none;stroke-width:0.185492;stroke-linejoin:round;paint-order:markers stroke fill"
       id="path1"
       cx="13.229021"
       cy="13.226068"
       r="1.3108293" /><circle
       style="opacity:1;fill:#ffffff;fill-opacity:1;stroke:none;stroke-width:0.158138;stroke-linejoin:round;paint-order:markers stroke fill"
       id="path2"
       cx="14.418042"
       cy="11.707314"
       r="0.80590796" /></g><g
     inkscape:groupmode="layer"
     id="layer3"
     inkscape:label="Layer 3"
     style="display:inline"><path
       id="path13"
       style="display:none;fill:#bd4abe;fill-opacity:1;stroke:none;stroke-width:1.95159;stroke-linejoin:round;paint-order:markers stroke fill"
       d="M 45.586882,1.9621541 A 13.791521,13.791521 0 0 0 31.795475,15.75356 13.791521,13.791521 0 0 0 45.586882,29.544967 13.791521,13.791521 0 0 0 59.378288,15.75356 13.791521,13.791521 0 0 0 45.586882,1.9621541 Z m 0,1.2273153 A 12.5642,12.5642 0 0 1 58.150972,15.75356 12.5642,12.5642 0 0 1 45.586882,28.317651 12.5642,12.5642 0 0 1 33.022791,15.75356 12.5642,12.5642 0 0 1 45.586882,3.1894694 Z"
       sodipodi:insensitive="true" /><path
       id="circle3"
       style="display:inline;fill:#387971;fill-opacity:1;stroke:none;stroke-width:1.6661;stroke-linejoin:round;paint-order:markers stroke fill"
       d="m 5.6443908,20.81063 -0.7407197,0.74072 c 2.0897914,2.08995 4.8891616,3.317509 7.8421919,3.4389 V 23.941153 C 10.070938,23.820614 7.5378254,22.703948 5.6443908,20.81063 Z"
       sodipodi:nodetypes="ccccc" /><path
       id="path14"
       style="display:inline;fill:#1d2f4a;fill-opacity:1;stroke:none;stroke-width:1.6661;stroke-linejoin:round;paint-order:markers stroke fill"
       d="M 6.5977537,3.4970156 C 3.3801904,5.690117 1.4550286,9.3321855 1.4550653,13.22608 c -7.77e-5,2.779779 0.983376,5.469939 2.7762665,7.594254 L 4.9751402,20.076526 C 3.377311,18.151267 2.5027685,15.728015 2.5028385,13.22608 2.5028727,9.8399428 4.101835,6.6526487 6.8161312,4.6281687 Z"
       sodipodi:nodetypes="ccccccc" /><path
       id="path16"
       style="display:inline;fill:#387971;fill-opacity:1;stroke:none;stroke-width:1.6661;stroke-linejoin:round;paint-order:markers stroke fill"
       d="m 19.980126,3.579955 -0.228085,1.1315943 c 2.64937,2.02972 4.202967,5.1770289 4.203002,8.5145307 -1.14e-4,5.476654 -4.115336,10.032248 -9.482915,10.654012 -0.429331,-2.968137 -0.695486,-4.744142 -0.695486,-4.744142 l -2.12e-4,5.851214 c 6.282814,-0.292519 11.226305,-5.471461 11.226386,-11.761081 1.9e-5,-3.8423092 -1.8748,-7.4429165 -5.02269,-9.6461247 z"
       sodipodi:nodetypes="ccccccccc" /><path
       id="path17"
       style="display:inline;fill:#1d2f4a;fill-opacity:1;stroke:none;stroke-width:1.6661;stroke-linejoin:round;paint-order:markers stroke fill"
       d="m 5.6443908,20.81063 2.8404561,-2.840458 c 1.2568672,0.720569 2.3951841,1.08674 4.2611771,1.165778 l -1.61e-4,4.805203 C 10.070938,23.820614 7.5378254,22.703948 5.6443908,20.81063 Z"
       sodipodi:nodetypes="ccccc" /><path
       d="m 45.586882,0.9425781 c -2.373527,0.8591751 -4.731824,1.6844066 -6.891571,2.0670573 l 1.457419,7.2380596 c 1.979286,-0.8061702 3.119688,-1.1423122 5.434152,-1.1857159 z m 0,0 c 2.373527,0.8591751 4.731824,1.6844066 6.891571,2.0670573 L 51.021034,10.247695 C 49.041748,9.4415248 47.901346,9.1053828 45.586882,9.0619791 Z"
       style="fill:#1d2f4a;fill-opacity:1;stroke:none;stroke-width:0.171119;stroke-linejoin:round;paint-order:markers stroke fill"
       id="path1-6"
       inkscape:path-effect="#path-effect20"
       inkscape:original-d="M 45.586882,0.9425781 C 43.213355,1.8017532 40.855058,2.6269847 38.695311,3.0096354 L 40.15273,10.247695 C 42.132016,9.4415248 43.272418,9.1053828 45.586882,9.0619791 Z"
       sodipodi:nodetypes="ccccc"
       transform="matrix(0.853711,0,0,0.853711,-25.689081,-0.22290788)" /></g></svg>
